<svg version="1.1" id="Layer_1" xmlns="http://www.w3.org/2000/svg" xmlns:xlink="http://www.w3.org/1999/xlink" x="0px" y="0px"
	 width="100%" viewBox="0 0 695 601" enable-background="new 0 0 695 601" xml:space="preserve">
<path fill="#000000" opacity="1.000000" stroke="none" 
	d="
M398.000000,602.000000 
	C265.333344,602.000000 133.166718,602.000000 1.000053,602.000000 
	C1.000036,401.666718 1.000036,201.333450 1.000018,1.000134 
	C232.666565,1.000089 464.333130,1.000089 695.999756,1.000045 
	C695.999878,201.333191 695.999878,401.666382 695.999939,601.999756 
	C596.833313,602.000000 497.666656,602.000000 398.000000,602.000000 
M621.029053,390.482361 
	C629.521545,364.549103 633.969971,337.878784 634.930115,310.665985 
	C635.631165,290.795990 633.486511,271.137787 630.210632,251.494766 
	C626.222351,227.579941 618.750916,204.831665 608.934631,182.863556 
	C597.381836,157.009247 581.995850,133.340958 562.802612,112.594307 
	C550.159973,98.928314 536.416321,85.989601 521.729492,74.572693 
	C498.518311,56.529366 472.594116,42.786945 444.764801,33.036247 
	C426.061035,26.482912 406.799530,22.119015 387.056213,19.949669 
	C370.672791,18.149498 354.379761,16.796764 337.774292,17.702719 
	C322.730286,18.523487 307.926636,20.247349 293.189056,23.026850 
	C268.783081,27.629803 245.527985,35.756916 223.425766,46.962601 
	C202.875168,57.381618 183.706650,69.897858 166.182709,85.060287 
	C151.743103,97.554008 138.447815,111.053436 126.659370,125.969727 
	C111.241623,145.478287 98.962112,166.909088 88.969170,189.712891 
	C74.891258,221.838547 68.016083,255.578506 66.097946,290.382050 
	C65.002617,310.256256 66.807816,330.052582 70.007065,349.702484 
	C73.948540,373.911163 81.020897,397.208405 91.128052,419.513977 
	C105.307945,450.807770 124.638985,478.714813 148.805923,503.072937 
	C158.530518,512.874451 169.038406,522.078979 180.099594,530.336548 
	C202.803207,547.285461 227.523453,560.759033 254.351562,570.208374 
	C279.217224,578.966614 304.629578,585.141724 331.069855,585.918945 
	C346.779480,586.380676 362.625549,587.133850 378.207184,585.639038 
	C393.955719,584.128174 409.611969,580.652466 425.026825,576.884460 
	C452.908051,570.069336 478.687897,558.036438 502.865509,542.681641 
	C523.088257,529.838501 541.839966,515.081787 557.527832,496.850037 
	C567.375610,485.405365 577.185486,473.844635 585.976746,461.592896 
	C601.389832,440.112885 612.255493,416.208374 621.029053,390.482361 
z"/>
<path fill="#215F9A" opacity="1.000000" stroke="none" 
	d="
M620.960205,390.879578 
	C612.255493,416.208374 601.389832,440.112885 585.976746,461.592896 
	C577.185486,473.844635 567.375610,485.405365 557.527832,496.850037 
	C541.839966,515.081787 523.088257,529.838501 502.865509,542.681641 
	C478.687897,558.036438 452.908051,570.069336 425.026825,576.884460 
	C409.611969,580.652466 393.955719,584.128174 378.207184,585.639038 
	C362.625549,587.133850 346.779480,586.380676 331.069855,585.918945 
	C304.629578,585.141724 279.217224,578.966614 254.351562,570.208374 
	C227.523453,560.759033 202.803207,547.285461 180.099594,530.336548 
	C169.038406,522.078979 158.530518,512.874451 148.805923,503.072937 
	C124.638985,478.714813 105.307945,450.807770 91.128052,419.513977 
	C81.020897,397.208405 73.948540,373.911163 70.007065,349.702484 
	C66.807816,330.052582 65.002617,310.256256 66.097946,290.382050 
	C68.016083,255.578506 74.891258,221.838547 88.969170,189.712891 
	C98.962112,166.909088 111.241623,145.478287 126.659370,125.969727 
	C138.447815,111.053436 151.743103,97.554008 166.182709,85.060287 
	C183.706650,69.897858 202.875168,57.381618 223.425766,46.962601 
	C245.527985,35.756916 268.783081,27.629803 293.189056,23.026850 
	C307.926636,20.247349 322.730286,18.523487 337.774292,17.702719 
	C354.379761,16.796764 370.672791,18.149498 387.056213,19.949669 
	C406.799530,22.119015 426.061035,26.482912 444.764801,33.036247 
	C472.594116,42.786945 498.518311,56.529366 521.729492,74.572693 
	C536.416321,85.989601 550.159973,98.928314 562.802612,112.594307 
	C581.995850,133.340958 597.381836,157.009247 608.934631,182.863556 
	C618.750916,204.831665 626.222351,227.579941 630.210632,251.494766 
	C633.486511,271.137787 635.631165,290.795990 634.930115,310.665985 
	C633.969971,337.878784 629.521545,364.549103 620.960205,390.879578 
M149.723221,220.191055 
	C127.948975,256.958160 113.470985,296.115997 111.412712,339.186493 
	C110.327339,361.898499 112.636108,384.228424 123.148254,404.828156 
	C137.014938,432.001495 158.458664,447.750702 190.036514,446.782593 
	C209.492310,446.186127 225.597977,437.566376 239.423660,424.472290 
	C246.848312,417.440430 253.702789,409.806488 260.774963,402.485229 
	C254.301956,432.163574 267.416901,441.326996 281.049164,446.417389 
	C280.855225,444.176941 280.680542,442.025726 280.481262,439.876831 
	C278.953949,423.407318 278.564117,406.987579 281.566742,390.592285 
	C285.965027,366.575928 294.143860,343.728882 302.467865,320.897644 
	C304.313782,315.834717 305.269897,310.447388 306.629547,305.233124 
	C292.344849,300.293060 279.003448,295.050140 265.280090,291.151794 
	C255.945831,288.500244 246.105850,286.643219 236.439514,286.383240 
	C222.797394,286.016327 213.723511,294.384216 212.030640,307.081635 
	C233.821640,306.359436 255.572403,305.820953 276.817444,312.013153 
	C276.817444,313.395660 276.927399,314.557220 276.801147,315.692505 
	C274.577148,335.690826 269.370636,354.901398 261.210785,373.278564 
	C252.670090,392.513428 241.790115,410.123138 224.815338,423.202942 
	C207.175217,436.795410 185.015656,436.680664 168.173264,422.817963 
	C158.800644,415.103546 152.661423,405.061066 148.920273,393.596802 
	C141.045059,369.464264 141.995026,344.880463 146.651413,320.474030 
	C156.165024,270.608551 176.891068,225.559586 207.137833,184.882523 
	C218.839249,169.145966 232.257797,155.077225 249.061691,144.618500 
	C259.055908,138.398132 269.821564,135.036911 281.770386,135.990967 
	C293.912903,136.960464 301.490875,144.244049 300.919006,156.387314 
	C300.565613,163.891357 298.960510,171.605240 296.410217,178.681793 
	C290.889648,194.000198 282.195465,207.519928 270.132080,218.570465 
	C275.216888,227.397964 282.567505,229.958496 291.247833,225.358536 
	C294.965942,223.388199 298.513123,220.495010 301.174774,217.234772 
	C313.046173,202.693619 318.201019,185.620605 317.637177,167.089981 
	C316.833191,140.668091 303.312683,121.749702 271.154388,123.875076 
	C250.859512,125.216385 233.320709,133.561066 216.973221,144.981277 
	C188.861237,164.620071 167.726120,190.523727 149.723221,220.191055 
M369.015747,386.485779 
	C365.540436,397.813904 362.434875,409.201965 363.011017,421.234528 
	C363.828522,438.308990 377.215363,449.111084 394.531158,446.344574 
	C394.531158,440.423492 394.213776,434.431152 394.588715,428.482513 
	C395.886108,407.898132 401.874756,388.263580 407.054657,368.463104 
	C425.892303,296.454559 448.035004,225.509659 474.849945,156.042679 
	C476.535034,151.677322 478.625763,150.346649 483.133667,150.501709 
	C502.452972,151.166168 521.769836,151.510895 540.947937,148.092224 
	C553.270996,145.895538 564.214050,141.136841 573.255554,132.795364 
	C542.491638,129.973801 511.868652,126.734451 481.173553,124.473206 
	C451.555176,122.291290 421.885284,122.322929 392.435059,127.057953 
	C380.384216,128.995483 368.614716,132.076920 358.418915,139.257431 
	C351.901672,143.847244 348.004181,150.025391 347.428406,158.546448 
	C384.517029,151.701965 421.535645,151.101212 458.964783,150.747971 
	C425.116394,228.042435 395.568146,306.265472 369.015747,386.485779 
z"/>
<path fill="#FCFDFE" opacity="1.000000" stroke="none" 
	d="
M149.902145,219.872910 
	C167.726120,190.523727 188.861237,164.620071 216.973221,144.981277 
	C233.320709,133.561066 250.859512,125.216385 271.154388,123.875076 
	C303.312683,121.749702 316.833191,140.668091 317.637177,167.089981 
	C318.201019,185.620605 313.046173,202.693619 301.174774,217.234772 
	C298.513123,220.495010 294.965942,223.388199 291.247833,225.358536 
	C282.567505,229.958496 275.216888,227.397964 270.132080,218.570465 
	C282.195465,207.519928 290.889648,194.000198 296.410217,178.681793 
	C298.960510,171.605240 300.565613,163.891357 300.919006,156.387314 
	C301.490875,144.244049 293.912903,136.960464 281.770386,135.990967 
	C269.821564,135.036911 259.055908,138.398132 249.061691,144.618500 
	C232.257797,155.077225 218.839249,169.145966 207.137833,184.882523 
	C176.891068,225.559586 156.165024,270.608551 146.651413,320.474030 
	C141.995026,344.880463 141.045059,369.464264 148.920273,393.596802 
	C152.661423,405.061066 158.800644,415.103546 168.173264,422.817963 
	C185.015656,436.680664 207.175217,436.795410 224.815338,423.202942 
	C241.790115,410.123138 252.670090,392.513428 261.210785,373.278564 
	C269.370636,354.901398 274.577148,335.690826 276.801147,315.692505 
	C276.927399,314.557220 276.817444,313.395660 276.817444,312.013153 
	C255.572403,305.820953 233.821640,306.359436 212.030640,307.081635 
	C213.723511,294.384216 222.797394,286.016327 236.439514,286.383240 
	C246.105850,286.643219 255.945831,288.500244 265.280090,291.151794 
	C279.003448,295.050140 292.344849,300.293060 306.629547,305.233124 
	C305.269897,310.447388 304.313782,315.834717 302.467865,320.897644 
	C294.143860,343.728882 285.965027,366.575928 281.566742,390.592285 
	C278.564117,406.987579 278.953949,423.407318 280.481262,439.876831 
	C280.680542,442.025726 280.855225,444.176941 281.049164,446.417389 
	C267.416901,441.326996 254.301956,432.163574 260.774963,402.485229 
	C253.702789,409.806488 246.848312,417.440430 239.423660,424.472290 
	C225.597977,437.566376 209.492310,446.186127 190.036514,446.782593 
	C158.458664,447.750702 137.014938,432.001495 123.148254,404.828156 
	C112.636108,384.228424 110.327339,361.898499 111.412712,339.186493 
	C113.470985,296.115997 127.948975,256.958160 149.902145,219.872910 
z"/>
<path fill="#FCFDFE" opacity="1.000000" stroke="none" 
	d="
M369.112305,386.095306 
	C395.568146,306.265472 425.116394,228.042435 458.964783,150.747971 
	C421.535645,151.101212 384.517029,151.701965 347.428406,158.546448 
	C348.004181,150.025391 351.901672,143.847244 358.418915,139.257431 
	C368.614716,132.076920 380.384216,128.995483 392.435059,127.057953 
	C421.885284,122.322929 451.555176,122.291290 481.173553,124.473206 
	C511.868652,126.734451 542.491638,129.973801 573.255554,132.795364 
	C564.214050,141.136841 553.270996,145.895538 540.947937,148.092224 
	C521.769836,151.510895 502.452972,151.166168 483.133667,150.501709 
	C478.625763,150.346649 476.535034,151.677322 474.849945,156.042679 
	C448.035004,225.509659 425.892303,296.454559 407.054657,368.463104 
	C401.874756,388.263580 395.886108,407.898132 394.588715,428.482513 
	C394.213776,434.431152 394.531158,440.423492 394.531158,446.344574 
	C377.215363,449.111084 363.828522,438.308990 363.011017,421.234528 
	C362.434875,409.201965 365.540436,397.813904 369.112305,386.095306 
z"/>
</svg>